HIERARCHY
ROOT Bip001_Pelvis
{
  OFFSET 7.937 94.8971 -8.5489
  CHANNELS 6 Xposition Yposition Zposition Zrotation Xrotation Yrotation
  JOINT Bip001_Spine
  {
    OFFSET 1.44608e-005 10.4157 -0.0118244
    CHANNELS 3 Zrotation Xrotation Yrotation
    JOINT Bip001_L_Thigh
    {
      OFFSET 11.2582 -10.4157 0.0118432
      CHANNELS 3 Zrotation Xrotation Yrotation
      JOINT Bip001_L_Calf
      {
        OFFSET -0.720717 -44.8687 0.366937
        CHANNELS 3 Zrotation Xrotation Yrotation
        JOINT Bip001_L_Foot
        {
          OFFSET -0.664439 -41.3745 -3.62995
          CHANNELS 3 Zrotation Xrotation Yrotation
          JOINT Bip001_L_Toe0
          {
            OFFSET 0.0541047 -10.4146 13.4033
            CHANNELS 3 Zrotation Xrotation Yrotation
            End Site
            {
              OFFSET -1.04503e-005 0 7.70137
            }
          }
        }
      }
    }
    JOINT Bip001_R_Thigh
    {
      OFFSET -11.2582 -10.4156 0.0118122
      CHANNELS 3 Zrotation Xrotation Yrotation
      JOINT Bip001_R_Calf
      {
        OFFSET 0.72059 -44.8687 0.36676
        CHANNELS 3 Zrotation Xrotation Yrotation
        JOINT Bip001_R_Foot
        {
          OFFSET 0.664321 -41.3745 -3.62979
          CHANNELS 3 Zrotation Xrotation Yrotation
          JOINT Bip001_R_Toe0
          {
            OFFSET -0.05417 -10.4146 13.4033
            CHANNELS 3 Zrotation Xrotation Yrotation
            End Site
            {
              OFFSET -1.04873e-005 0 7.70137
            }
          }
        }
      }
    }
    JOINT Bip001_Spine1
    {
      OFFSET 1.90638e-005 14.8539 1.10727
      CHANNELS 3 Zrotation Xrotation Yrotation
      JOINT Bip001_Spine2
      {
        OFFSET 2.28934e-005 14.7848 -1.7233
        CHANNELS 3 Zrotation Xrotation Yrotation
        JOINT Bip001_Neck
        {
          OFFSET 2.24514e-005 15.6905 -0.498826
          CHANNELS 3 Zrotation Xrotation Yrotation
          JOINT Bip001_L_Clavicle
          {
            OFFSET 6.17691 -0.000591152 0.00852867
            CHANNELS 3 Zrotation Xrotation Yrotation
            JOINT Bip001_L_UpperArm
            {
              OFFSET 11.773 -0.0611878 0.00197697
              CHANNELS 3 Zrotation Xrotation Yrotation
              JOINT Bip001_L_Forearm
              {
                OFFSET 26.4515 0.0817568 -2.19579
                CHANNELS 3 Zrotation Xrotation Yrotation
                JOINT Bip001_L_Hand
                {
                  OFFSET 32.8677 0.156744 1.67112
                  CHANNELS 3 Zrotation Xrotation Yrotation
                  JOINT Bip001_L_Finger0
                  {
                    OFFSET 6.16268 -2.25226 6.01674
                    CHANNELS 3 Zrotation Xrotation Yrotation
                    End Site
                    {
                      OFFSET 4.30499 -1.46662 0.618148
                    }
                  }
                  JOINT Bip001_L_Finger1
                  {
                    OFFSET 11.2957 -0.718374 -0.201963
                    CHANNELS 3 Zrotation Xrotation Yrotation
                    End Site
                    {
                      OFFSET 6.31952 -0.405163 -0.0802303
                    }
                  }
                }
              }
            }
          }
          JOINT Bip001_R_Clavicle
          {
            OFFSET -6.17691 -0.000574027 0.00851165
            CHANNELS 3 Zrotation Xrotation Yrotation
            JOINT Bip001_R_UpperArm
            {
              OFFSET -11.773 -0.0611516 0.00194365
              CHANNELS 3 Zrotation Xrotation Yrotation
              JOINT Bip001_R_Forearm
              {
                OFFSET -26.4514 0.0822334 -2.19736
                CHANNELS 3 Zrotation Xrotation Yrotation
                JOINT Bip001_R_Hand
                {
                  OFFSET -32.8677 0.156817 1.67144
                  CHANNELS 3 Zrotation Xrotation Yrotation
                  JOINT Bip001_R_Finger0
                  {
                    OFFSET -6.1627 -2.25224 6.0167
                    CHANNELS 3 Zrotation Xrotation Yrotation
                    End Site
                    {
                      OFFSET -4.30499 -1.46662 0.618134
                    }
                  }
                  JOINT Bip001_R_Finger1
                  {
                    OFFSET -11.2958 -0.718344 -0.201994
                    CHANNELS 3 Zrotation Xrotation Yrotation
                    End Site
                    {
                      OFFSET -6.31952 -0.405146 -0.0802475
                    }
                  }
                }
              }
            }
          }
          JOINT Bip001_Head
          {
            OFFSET 1.11782e-005 11.4912 2.09908
            CHANNELS 3 Zrotation Xrotation Yrotation
            End Site
            {
              OFFSET 2.95144e-005 21.2823 -2.83069e-005
            }
          }
        }
      }
    }
  }
}
MOTION
Frames:	13
Frame Time:	0.04
6.97937 95.6213 -7.21117 -0.720048 0.196179 8.306 -0.396315 0.625379 2.1162 6.3077 -9.73852 4.83943 -0.873692 14.742 -3.99138 -3.18786 -5.41959 -1.85873 0.583251 -9.95313 -0.0880541 -6.31344 -2.97235 -3.73537 0.577329 12.1532 -0.454008 -0.054838 -8.12591 -12.8892 -0.311333 -11.5599 0.125725 -0.88317 1.23445 4.2353 -0.883171 1.23445 4.2353 -2.1405 -2.19149 -4.25132 -28.9458 6.794 -9.93655 -48.0963 38.8469 7.18248 12.2359 2.87968 -24.1329 -4.79768 -0.428106 -0.115775 -0 0 3.18055e-015 -1.59028e-015 3.18056e-015 3.18055e-015 7.77858 7.23065 31.629 -10.8718 10.9427 67.6412 -40.9558 15.9526 33.7654 -42.9108 13.1283 -7.75663 -5.96354e-015 -3.18055e-015 -1.27222e-014 -4.37326e-015 -3.18056e-015 -1.41137e-014 1.01527 0.954773 -4.96698 
6.98598 95.6315 -7.19639 -0.694955 0.0537675 8.25058 -0.399636 0.676544 2.04275 6.34389 -9.57903 5.04069 -0.919628 14.6712 -4.25683 -3.12976 -5.39622 -1.62692 0.576673 -9.9643 -0.12689 -6.30551 -2.86193 -3.79685 0.544595 12.0926 -0.338971 -0.0759056 -8.07544 -12.8146 -0.276635 -11.5637 0.140475 -0.868094 1.33763 4.08709 -0.868096 1.33763 4.0871 -2.4711 -2.6106 -4.21678 -28.7189 6.902 -8.93332 -47.6247 39.146 6.37261 12.4373 2.98829 -24.0791 -4.89094 -0.434236 -0.203435 -3.53112e-031 6.36111e-015 3.18055e-015 -1.59028e-015 9.54167e-015 3.18055e-015 7.21712 7.41144 32.0152 -7.30544 10.1913 68.5197 -39.2023 15.7404 32.2027 -40.8383 13.0475 -8.72997 -5.56597e-015 0 -5.96354e-015 -6.36111e-015 -3.18056e-015 -3.97569e-015 1.54541 1.44578 -5.13593 
6.99875 95.64 -7.20758 -0.736975 0.0166533 8.19268 -0.39169 0.688731 2.04272 6.38611 -9.54574 5.14555 -0.901467 14.6604 -4.2027 -3.13728 -5.40429 -1.75504 0.580992 -9.94272 -0.103227 -6.2768 -2.80773 -3.86612 0.539827 11.97 -0.304172 -0.100265 -7.97554 -12.744 -0.239269 -11.5811 0.161372 -0.872146 1.36191 4.08927 -0.872147 1.36191 4.08927 -2.51149 -2.73827 -4.40928 -28.7421 6.90795 -8.6504 -47.3134 38.9418 6.16267 12.3984 2.9916 -24.4033 -4.67739 -0.435831 0.174728 -3.18055e-015 -6.36111e-015 1.59028e-015 -4.77083e-015 0 3.18055e-015 7.64131 7.71439 32.1408 -2.31987 9.6622 66.7524 -40.937 16.1086 35.9578 -39.373 12.9977 -9.28526 -1.59028e-015 6.36111e-015 -2.38542e-015 -1.59028e-015 3.18056e-015 7.95139e-016 1.83484 1.26752 -5.3965 
6.97819 95.6424 -7.24205 -0.869521 0.088662 8.10865 -0.386338 0.686978 2.14057 6.50621 -9.71792 5.05928 -0.911923 14.804 -4.23992 -3.13129 -5.477 -1.65808 0.585151 -9.94271 -0.0803489 -6.13288 -2.86383 -3.8646 0.518972 11.8229 -0.229126 -0.169061 -7.83764 -12.8349 -0.191536 -11.5916 0.147415 -0.853985 1.3446 4.28478 -0.853986 1.3446 4.28478 -2.23008 -3.14177 -4.895 -29.0069 7.198 -8.59229 -47.4943 38.6938 6.26389 12.5298 2.77896 -24.6864 -4.60114 -0.43837 0.202506 3.18055e-015 1.27222e-014 1.59028e-015 4.77083e-015 1.27222e-014 -1.59028e-015 8.50556 8.44246 31.3966 -0.468554 9.56001 65.3215 -44.6058 17.5269 40.3335 -40.1502 12.7484 -9.14205 -7.95139e-016 1.27222e-014 6.36111e-015 3.18055e-015 9.54167e-015 5.96354e-015 1.64304 1.20476 -5.73459 
7.06201 95.6442 -7.24224 -0.788027 0.0188183 8.00368 -0.401883 0.693499 2.10557 6.37678 -9.57649 5.00527 -0.88242 14.7189 -4.17563 -3.10922 -5.46596 -1.54593 0.585938 -9.94271 -0.0771081 -6.27378 -2.82727 -3.91384 0.559603 11.8605 -0.067471 -0.169807 -7.84554 -12.7925 -0.181846 -11.5953 0.138401 -0.886423 1.36557 4.21528 -0.886422 1.36558 4.21528 -2.0243 -3.43663 -4.98798 -29.109 7.3898 -8.40351 -47.875 38.5678 6.46976 12.5921 2.85851 -24.9542 -4.55094 -0.422547 0.0692345 1.59028e-015 -3.18055e-015 -1.59028e-015 -0 -3.18056e-015 -0 9.89723 9.24167 30.8637 -0.813205 10.7816 62.4498 -48.5914 14.8846 46.0511 -40.3926 13.3075 -8.75865 -1.59028e-015 0 -0 -1.59028e-015 -3.18056e-015 3.97569e-016 1.27272 1.32246 -5.67507 
7.1351 95.6433 -7.23383 -0.751002 -0.0736232 7.79109 -0.382605 0.698687 2.00686 6.32529 -9.4102 5.25322 -0.877391 14.7224 -4.09361 -3.07427 -5.50623 -1.55627 0.583222 -9.94271 -0.0942421 -6.37642 -2.78315 -3.71079 0.588841 11.8684 0.0462239 -0.151309 -7.83087 -12.7844 -0.182067 -11.5985 0.136639 -0.846636 1.37905 4.01773 -0.846634 1.37904 4.01772 -2.51566 -3.55967 -4.66474 -28.743 7.51104 -8.08002 -48.0623 39.2628 6.50499 12.6512 2.78253 -24.9451 -4.63865 -0.358283 -0.41881 -3.18055e-015 0 1.59028e-015 -3.18055e-015 3.18056e-015 1.59028e-015 12.263 10.0159 30.5207 -0.0482925 11.8324 58.582 -51.2089 11.4902 53.0758 -39.1979 13.1147 -8.10187 -3.97569e-015 -3.18055e-015 -5.36719e-015 -4.77083e-015 -6.36111e-015 -2.5842e-015 1.65395 1.37459 -5.57717 
7.21663 95.6464 -7.21883 -0.737618 -0.12798 7.59469 -0.381716 0.677346 1.96397 6.29769 -9.27313 5.22844 -0.931519 14.7295 -3.77549 -3.03751 -5.54905 -1.60192 0.581969 -9.9427 -0.102963 -6.43767 -2.71217 -3.70577 0.559131 11.8093 0.0801451 -0.0799049 -7.77901 -12.5997 -0.174471 -11.604 0.17352 -0.834093 1.34041 3.93183 -0.83463 1.34041 3.93182 -2.36114 -3.31348 -4.5823 -28.9925 7.40301 -8.4613 -48.4009 39.3123 6.91597 12.8317 2.95499 -24.7601 -5.14283 -0.444123 -0.692516 -3.18055e-015 3.18055e-015 -0 -3.18055e-015 3.18056e-015 -0 15.0345 10.5778 29.4363 0.838181 13.5184 53.9116 -52.5467 7.53237 60.7933 -36.3762 11.8573 -6.84393 -2.78298e-015 3.18055e-015 -2.78298e-015 -1.98785e-015 0 -5.56597e-015 1.4892 0.985164 -5.42411 
7.30973 95.6431 -7.17991 -0.689575 -0.204233 7.42937 -0.381606 0.66989 1.90554 6.20338 -9.1099 5.09401 -0.966413 14.7231 -3.7967 -2.96572 -5.62205 -1.23446 0.583329 -9.9427 -0.0965889 -6.53227 -2.638 -3.79047 0.509118 11.8197 0.15544 0.027887 -7.795 -12.3697 -0.169156 -11.6139 0.206412 -0.837451 1.32625 3.81453 -0.837452 1.32625 3.81454 -2.31076 -3.51281 -4.54909 -28.9515 7.62787 -8.52774 -48.9226 39.5941 7.2043 12.7395 2.95474 -24.5102 -4.90412 -0.525023 -0.667693 1.59028e-015 3.18055e-015 -1.59028e-015 1.59028e-015 0 -1.59028e-015 17.5583 11.3419 27.9757 4.06055 14.7239 48.9389 -53.0821 5.66498 68.5533 -31.5863 11.1571 -5.34306 5.56597e-015 3.18055e-015 3.18055e-015 9.54166e-015 -3.18056e-015 2.38542e-015 1.24662 1.244 -5.31671 
7.40733 95.6382 -7.11379 -0.590654 -0.338598 7.3066 -0.407396 0.674117 1.7828 6.12078 -8.83995 5.15766 -0.984109 14.6543 -3.59716 -2.92877 -5.6669 -1.28378 0.588212 -9.94271 -0.0698285 -6.64772 -2.51032 -3.67864 0.507144 11.8864 0.189944 0.100725 -7.85993 -12.2658 -0.170476 -11.6173 0.233855 -0.895093 1.33263 3.56973 -0.89509 1.33263 3.56972 -2.02147 -3.405 -4.44611 -28.811 7.53508 -8.70811 -49.6564 39.4667 7.45925 12.7544 3.18522 -24.2157 -4.89513 -0.518161 -0.557564 -4.77083e-015 -3.18055e-015 1.59028e-015 -4.77083e-015 0 4.77083e-015 20.2065 11.798 26.4443 6.84118 16.8732 43.3854 -52.4976 4.67327 74.6351 -25.1464 10.0543 -4.57177 -3.18055e-015 0 -0 -3.18055e-015 3.18056e-015 -0 0.973499 1.16298 -5.07972 
7.51871 95.6371 -7.02934 -0.427516 -0.546515 7.17071 -0.407845 0.679934 1.60839 5.95157 -8.42808 5.04775 -1.0781 14.4878 -3.28753 -2.86159 -5.67032 -1.17572 0.586155 -9.94269 -0.0832534 -6.86828 -2.3194 -3.47712 0.534826 11.9878 0.185718 0.184824 -7.9562 -12.1285 -0.186308 -11.6187 0.244194 -0.890691 1.34736 3.22109 -0.890692 1.34736 3.2211 -2.30819 -3.359 -4.19478 -28.6518 7.55692 -8.68289 -50.124 39.6154 7.81705 12.7278 3.15648 -23.9312 -5.00094 -0.330546 -0.536518 2.64834e-031 -3.18055e-015 4.77083e-015 -1.59028e-015 -6.36111e-015 3.18055e-015 23.4468 12.3825 25.3363 9.66395 19.8757 36.5506 -49.1074 4.03223 78.0827 -18.2405 9.40809 -4.90416 7.06225e-031 -1.27222e-014 3.18055e-015 1.59028e-015 -9.54167e-015 6.36111e-015 1.12532 1.57379 -4.94918 
7.64572 95.6243 -7.01265 -0.253679 -0.42449 7.24106 -0.419862 0.608583 1.41988 5.65252 -8.38399 3.7196 -1.34275 14.3356 -2.19793 -2.78811 -5.63783 -0.809203 0.591503 -9.94213 -0.0537611 -7.18744 -2.43265 -3.64868 0.572587 12.2426 0.246976 0.311681 -8.13834 -11.903 -0.231995 -11.6198 0.261871 -0.920387 1.20576 2.84333 -0.920387 1.20576 2.84333 -2.29289 -3.09096 -4.08801 -28.7201 7.31378 -8.72214 -50.4737 39.7214 7.93488 12.7257 3.73341 -23.4033 -5.17775 -0.394049 -0.705138 -1.59028e-015 -3.18055e-015 1.59028e-015 1.59028e-015 -6.36111e-015 3.18055e-015 25.7399 12.4034 23.9933 13.1109 24.3925 29.3642 -41.9663 3.36686 78.728 -13.9559 8.57199 -6.95163 1.59028e-015 1.59028e-015 -3.18055e-015 1.59028e-015 0 -0 1.10168 1.65854 -4.84404 
7.73427 95.6244 -6.85705 -0.0995113 -0.762526 6.97095 -0.433485 0.642635 1.32731 5.55368 -7.78368 4.53894 -1.20788 14.1531 -2.63058 -2.76835 -5.69321 -0.895598 0.593606 -9.93897 -0.0430146 -7.35455 -2.09169 -3.55886 0.582119 12.2759 0.381489 0.394763 -8.23612 -11.7343 -0.266137 -11.6203 0.289342 -0.97693 1.27391 2.66115 -0.976929 1.27391 2.66115 -2.09321 -3.09851 -4.06465 -28.8347 7.3133 -8.75554 -50.7952 40.1354 8.03285 12.5679 3.56451 -22.9481 -5.25237 -0.392633 -0.811411 -3.18055e-015 -6.36111e-015 -0 -1.59028e-015 0 -0 27.7274 12.6216 22.645 17.4199 29.5407 22.081 -29.4245 1.73274 75.958 -9.25294 8.45688 -11.596 -1.59028e-015 4.77083e-015 -3.18055e-015 0 1.59028e-015 -0 1.04768 1.78749 -4.75483 
7.78429 95.6155 -6.80174 -0.0743459 -0.714296 6.8612 -0.457439 0.604313 1.21823 5.53297 -7.6994 6.27046 -0.778104 14.178 -3.86115 -2.80176 -5.75313 -1.24768 0.595519 -9.93599 -0.0332875 -7.41117 -2.11908 -3.5999 0.5639 12.3308 0.436354 0.476999 -8.29816 -11.5418 -0.294488 -11.6163 0.315061 -1.00123 1.20605 2.44051 -1.00123 1.20606 2.44053 -1.98841 -3.22768 -4.01277 -28.7565 7.44216 -8.787 -51.1938 40.1576 8.05715 12.488 3.35825 -22.6876 -5.29745 -0.387168 -0.947475 -4.77083e-015 -6.36111e-015 4.77083e-015 -3.18055e-015 -3.18056e-015 3.18055e-015 29.6848 12.8531 21.2238 22.8029 34.5398 14.0677 -21.0448 -1.57197 70.9493 -2.76769 7.30251 -16.0074 3.18055e-015 -3.18055e-015 9.54166e-015 3.53113e-031 -3.18056e-015 6.36111e-015 0.979702 1.80386 -4.65709 
